<svg
    xmlns="http://www.w3.org/2000/svg"
    viewBox="0 0 50 50"
    version="1.1"
    width="40%"
    height="40%"
>
    <path
        style=" "
        d="M 4 0 L 4 48 L 27 48 C 27.359375 48.003906 27.695313 47.816406 27.878906 47.503906 C 28.058594 47.191406 28.058594 46.808594 27.878906 46.496094 C 27.695313 46.183594 27.359375 45.996094 27 46 L 6 46 L 6 2 L 24 2 L 24 16 L 38 16 L 38 25 C 37.996094 25.359375 38.183594 25.695313 38.496094 25.878906 C 38.808594 26.058594 39.191406 26.058594 39.503906 25.878906 C 39.816406 25.695313 40.003906 25.359375 40 25 L 40 14.59375 L 39.71875 14.28125 L 25.71875 0.28125 L 25.40625 0 Z M 26 3.4375 L 36.5625 14 L 26 14 Z M 39 28 C 32.953125 28 28 32.953125 28 39 C 28 45.046875 32.953125 50 39 50 C 45.046875 50 50 45.046875 50 39 C 50 32.953125 45.046875 28 39 28 Z M 39 30 C 41.113281 30 43.054688 30.742188 44.59375 31.96875 L 31.96875 44.59375 C 30.742188 43.054688 30 41.113281 30 39 C 30 34.046875 34.046875 30 39 30 Z M 46.03125 33.40625 C 47.257813 34.945313 48 36.886719 48 39 C 48 43.953125 43.953125 48 39 48 C 36.886719 48 34.945313 47.257813 33.40625 46.03125 Z "
    />
</svg>
